<svg data-v-423bf9ae="" xmlns="http://www.w3.org/2000/svg" viewBox="0 0 264.928728866693 60">
    <g data-v-423bf9ae="" id="8c6ba281-be81-4709-bd2f-14b9cfa98d12" fill="currentColor"
        transform="matrix(6.109979823280842,0,0,6.109979823280842,-1.2830962252046163,-26.33401221188742)">
        <path
            d="M7.67 4.31L0.21 4.31L0.21 5.67L3.18 5.67L3.18 14L4.70 14L4.70 5.67L7.67 5.67ZM9.20 8.72L9.20 7.11L7.77 7.11L7.77 14L9.20 14L9.20 10.60C9.20 9.18 10.19 8.34 11.79 8.34L11.79 6.93C10.57 6.93 9.66 7.59 9.20 8.72ZM18.14 7.11L18.14 8.11C17.54 7.41 16.66 6.99 15.64 6.99C13.69 6.99 12.26 8.48 12.26 10.56C12.26 12.63 13.69 14.13 15.64 14.13C16.66 14.13 17.54 13.71 18.14 13.01L18.14 14L19.57 14L19.57 7.11ZM15.93 12.88C14.66 12.88 13.73 11.91 13.73 10.56C13.73 9.21 14.66 8.23 15.93 8.23C17.22 8.23 18.14 9.21 18.14 10.56C18.14 11.91 17.22 12.88 15.93 12.88ZM28.20 11.14L26.75 11.14C26.54 12.15 25.69 12.88 24.61 12.88C23.32 12.88 22.40 11.91 22.40 10.56C22.40 9.21 23.32 8.23 24.61 8.23C25.68 8.23 26.54 8.97 26.74 9.97L28.20 9.97C27.99 8.25 26.49 6.99 24.61 6.99C22.48 6.99 20.93 8.48 20.93 10.56C20.93 12.63 22.48 14.13 24.61 14.13C26.49 14.13 27.99 12.88 28.20 11.14ZM35.57 7.11L33.88 7.11L30.95 10.19L30.95 4.31L29.53 4.31L29.53 14L30.95 14L30.95 10.65L33.88 14L35.57 14L32.40 10.40ZM38.36 5.25C38.36 4.75 37.98 4.41 37.45 4.41C36.90 4.41 36.54 4.75 36.54 5.25C36.54 5.74 36.90 6.09 37.45 6.09C37.98 6.09 38.36 5.74 38.36 5.25ZM36.74 7.11L36.74 14L38.16 14L38.16 7.11ZM43.57 7.11L42.01 7.11L42.01 5.33L40.57 5.33L40.57 7.11L39.30 7.11L39.30 8.32L40.57 8.32L40.57 14L42.01 14L42.01 8.32L43.57 8.32Z">
        </path>
    </g>
</svg>