<svg data-v-423bf9ae="" xmlns="http://www.w3.org/2000/svg" viewBox="0 0 400 90">
    <g data-v-423bf9ae="" id="f8a7fb69-78ee-453a-8e68-46071fafe93c" fill="currentColor"
        transform="matrix(6.109979823280842,0,0,6.109979823280842,132.9350968289946,-11.334014119236052)">
        <path
            d="M7.67 4.31L0.21 4.31L0.21 5.67L3.18 5.67L3.18 14L4.70 14L4.70 5.67L7.67 5.67ZM9.20 8.72L9.20 7.11L7.77 7.11L7.77 14L9.20 14L9.20 10.60C9.20 9.18 10.19 8.34 11.79 8.34L11.79 6.93C10.57 6.93 9.66 7.59 9.20 8.72ZM18.14 7.11L18.14 8.11C17.54 7.41 16.66 6.99 15.64 6.99C13.69 6.99 12.26 8.48 12.26 10.56C12.26 12.63 13.69 14.13 15.64 14.13C16.66 14.13 17.54 13.71 18.14 13.01L18.14 14L19.57 14L19.57 7.11ZM15.93 12.88C14.66 12.88 13.73 11.91 13.73 10.56C13.73 9.21 14.66 8.23 15.93 8.23C17.22 8.23 18.14 9.21 18.14 10.56C18.14 11.91 17.22 12.88 15.93 12.88ZM28.20 11.14L26.75 11.14C26.54 12.15 25.69 12.88 24.61 12.88C23.32 12.88 22.40 11.91 22.40 10.56C22.40 9.21 23.32 8.23 24.61 8.23C25.68 8.23 26.54 8.97 26.74 9.97L28.20 9.97C27.99 8.25 26.49 6.99 24.61 6.99C22.48 6.99 20.93 8.48 20.93 10.56C20.93 12.63 22.48 14.13 24.61 14.13C26.49 14.13 27.99 12.88 28.20 11.14ZM35.57 7.11L33.88 7.11L30.95 10.19L30.95 4.31L29.53 4.31L29.53 14L30.95 14L30.95 10.65L33.88 14L35.57 14L32.40 10.40ZM38.36 5.25C38.36 4.75 37.98 4.41 37.45 4.41C36.90 4.41 36.54 4.75 36.54 5.25C36.54 5.74 36.90 6.09 37.45 6.09C37.98 6.09 38.36 5.74 38.36 5.25ZM36.74 7.11L36.74 14L38.16 14L38.16 7.11ZM43.57 7.11L42.01 7.11L42.01 5.33L40.57 5.33L40.57 7.11L39.30 7.11L39.30 8.32L40.57 8.32L40.57 14L42.01 14L42.01 8.32L43.57 8.32Z">
        </path>
    </g>
    <g data-v-423bf9ae="" id="0e1a6684-e9b6-4279-9b8e-89bc484ff38e"
        transform="matrix(1.2720308975766728,0,0,1.2720308975766728,-6.525836025534048,-17.9781799955923)" stroke="none"
        fill="currentColor">
        <path
            d="M32.302 36.596L5.979 25.908l5.469-1.997 26.01 10.56zM44.692 31.671L18.37 20.983l5.468-1.997 26.011 10.56zM55.466 27.309L29.144 16.621l5.468-1.997 26.011 10.56zM31.531 47.455L7.105 37.538l-1.897-4.972 26.291 10.66zM31.531 56.002l-18.516-7.556-1.695-4.893 20.179 8.219zM31.531 64.634l-10.223-4.197-2.283-5.133 12.474 5.1zM35.526 72.919l29.345 12.457.001-33.399-29.346-12.471v33.413zm4.562-26.701l20.614 8.752v23.448l-20.614-8.751V46.218z">
        </path>
        <path
            d="M83.089 44.584v-.427l-1.156.494 1.156-.501-.502-.204 11.911-5.051-29.234-11.586L36.06 38.882l29.204 12.411 12.243-5.192.534.217v.407l-12.386 5.253-.001 33.399L95 72.919V39.532l-11.911 5.052zm.75-5.333l-6.266 2.659-18.568-7.54 6.259-2.48 18.575 7.361zm-18.575 7.886l-18.576-7.885 7.06-2.798 18.748 7.613-7.232 3.07zM90.26 69.539L70.004 78.14V55.098l8.037-3.412v5.479l1.245-2.58.846.48.78-1.84.724 1.013.613-.613.84 1.382v-5.465l7.171-3.044v23.041z">
        </path>
        <path
            d="M87.667 57.529c0 1.296-1.052 2.787-2.35 3.331-1.296.541-2.348-.07-2.348-1.367 0-1.299 1.052-2.79 2.348-3.331 1.298-.543 2.35.069 2.35 1.367zM80.641 60.467c0 1.296-1.052 2.786-2.351 3.329-1.296.543-2.348-.071-2.348-1.367 0-1.297 1.052-2.789 2.348-3.331 1.299-.541 2.351.071 2.351 1.369zM81.579 70.204c-3.589 1.5-6.657.217-7.294-3.05l1.738-1.039c.484 2.489 2.822 3.467 5.556 2.324 2.737-1.144 5.074-4.074 5.559-6.969l1.738-.414c-.637 3.8-3.705 7.648-7.297 9.148z">
        </path>
    </g>
</svg>