<?xml version="1.0" standalone="no"?>
<!DOCTYPE svg PUBLIC "-//W3C//DTD SVG 20010904//EN" "http://www.w3.org/TR/2001/REC-SVG-20010904/DTD/svg10.dtd">
<svg version="1.0" xmlns="http://www.w3.org/2000/svg" width="120.000000pt" height="120.000000pt"
        viewBox="0 0 120.000000 120.000000" preserveAspectRatio="xMidYMid meet">

        <g transform="translate(0.000000,120.000000) scale(0.100000,-0.100000)" fill="currentColor" stroke="none">
                <path d="M399 917 c-21 -8 -9 -15 100 -58 110 -45 162 -54 161 -31 0 4 -54 28
-119 53 -93 36 -123 44 -142 36z" />
                <path d="M299 878 c-21 -9 -10 -15 100 -59 77 -31 130 -47 143 -43 29 9 15 17
-108 67 -87 35 -115 42 -135 35z" />
                <path d="M188 833 c-31 -8 -20 -17 50 -44 37 -15 90 -36 117 -47 37 -15 56
-17 75 -10 23 9 15 14 -84 54 -126 50 -135 53 -158 47z" />
                <path d="M580 757 c-69 -28 -130 -56 -137 -63 -9 -8 -11 -55 -10 -160 l2 -149
134 -57 c74 -32 136 -58 138 -58 2 0 3 69 3 154 l0 154 -30 12 c-41 17 -33 22
10 7 l35 -12 -3 -158 -3 -157 38 15 c21 9 82 34 136 57 l97 41 0 155 c0 133
-2 153 -15 148 -39 -16 -47 -16 -20 0 l29 17 -122 48 c-67 26 -130 50 -139 52
-10 3 -74 -18 -143 -46z m280 -49 l25 -10 -26 -14 c-24 -12 -33 -11 -90 12
-35 15 -75 31 -89 36 l-25 10 30 12 c26 11 38 9 90 -12 33 -13 71 -29 85 -34z
m-170 -18 c41 -17 76 -32 78 -34 2 -3 -9 -11 -25 -19 -26 -13 -34 -12 -112 21
-74 32 -81 37 -65 49 26 19 43 17 124 -17z m-162 -25 c24 -10 41 -19 39 -22
-3 -2 -29 8 -58 22 -59 27 -50 28 19 0z m382 -5 c-8 -5 -19 -10 -25 -10 -5 0
-3 5 5 10 8 5 20 10 25 10 6 0 3 -5 -5 -10z m-290 -35 c14 -8 21 -14 15 -14
-5 0 -21 6 -35 14 -14 8 -20 14 -15 14 6 0 21 -6 35 -14z m-44 -34 l89 -38 3
-107 c1 -58 -1 -106 -5 -106 -4 0 -47 16 -95 36 l-88 37 0 108 c0 60 1 109 3
109 2 0 44 -17 93 -39z m219 19 c-22 -10 -44 -18 -50 -18 -5 0 8 8 30 19 22
10 45 18 50 18 6 0 -8 -9 -30 -19z m155 -87 l0 -108 -78 -32 c-42 -18 -85 -35
-94 -39 -16 -6 -18 3 -18 100 l0 107 33 14 c29 12 32 12 35 -5 3 -15 7 -16 27
-6 14 6 25 19 25 29 0 14 41 43 68 47 1 0 2 -48 2 -107z" />
                <path d="M886 524 c-3 -9 -3 -20 0 -25 8 -13 34 9 34 27 0 19 -26 18 -34 -2z" />
                <path d="M820 495 c-10 -12 -9 -16 5 -21 16 -6 34 9 35 29 0 13 -27 8 -40 -8z" />
                <path d="M907 466 c-24 -37 -61 -53 -82 -36 -8 7 -19 10 -23 6 -12 -12 31 -37
52 -30 29 8 79 59 74 74 -2 8 -11 2 -21 -14z" />
                <path d="M159 737 c8 -21 40 -38 189 -96 l53 -21 -3 21 c-2 16 -21 29 -78 51
-41 17 -96 38 -122 49 l-47 18 8 -22z" />
                <path d="M217 631 c3 -11 25 -27 56 -39 29 -11 69 -28 90 -37 38 -16 38 -16
35 6 -2 16 -22 29 -87 55 -99 40 -101 40 -94 15z" />
                <path d="M290 527 c0 -19 15 -30 68 -50 41 -16 42 -16 42 3 0 13 -11 25 -33
34 -63 26 -77 28 -77 13z" />
        </g>
</svg>